<mxfile host="app.diagrams.net" agent="Mozilla/5.0 (Windows NT 10.0; Win64; x64) AppleWebKit/537.36 (KHTML, like Gecko) Chrome/137.0.0.0 Safari/537.36 Edg/137.0.0.0" version="27.1.4">
  <diagram name="Trang-1" id="uEP4et_x5-qm5qEJiQj5">
    <mxGraphModel dx="1657" dy="802" grid="1" gridSize="10" guides="1" tooltips="1" connect="1" arrows="1" fold="1" page="1" pageScale="1" pageWidth="850" pageHeight="1100" math="0" shadow="0">
      <root>
        <mxCell id="0" />
        <mxCell id="1" parent="0" />
        <mxCell id="mhZYFdH8LyNg6odgdk1d-1" value="Change Resident Status" style="swimlane;childLayout=stackLayout;resizeParent=1;resizeParentMax=0;startSize=20;html=1;" parent="1" vertex="1">
          <mxGeometry x="40" y="60" width="1160" height="890" as="geometry" />
        </mxCell>
        <mxCell id="mhZYFdH8LyNg6odgdk1d-2" value="User" style="swimlane;startSize=20;html=1;" parent="mhZYFdH8LyNg6odgdk1d-1" vertex="1">
          <mxGeometry y="20" width="330" height="870" as="geometry" />
        </mxCell>
        <mxCell id="mhZYFdH8LyNg6odgdk1d-5" value="" style="ellipse;html=1;shape=startState;fillColor=#000000;strokeColor=#ff0000;" parent="mhZYFdH8LyNg6odgdk1d-2" vertex="1">
          <mxGeometry x="10" y="45" width="30" height="30" as="geometry" />
        </mxCell>
        <mxCell id="mhZYFdH8LyNg6odgdk1d-6" value="" style="edgeStyle=orthogonalEdgeStyle;html=1;verticalAlign=bottom;endArrow=open;endSize=8;strokeColor=#ff0000;rounded=0;entryX=0;entryY=0.5;entryDx=0;entryDy=0;" parent="mhZYFdH8LyNg6odgdk1d-2" source="mhZYFdH8LyNg6odgdk1d-5" target="mhZYFdH8LyNg6odgdk1d-7" edge="1">
          <mxGeometry relative="1" as="geometry">
            <mxPoint x="25" y="120" as="targetPoint" />
          </mxGeometry>
        </mxCell>
        <mxCell id="mhZYFdH8LyNg6odgdk1d-7" value="Change resident status" style="rounded=1;whiteSpace=wrap;html=1;arcSize=40;fontColor=#000000;fillColor=#ffffc0;strokeColor=#ff0000;" parent="mhZYFdH8LyNg6odgdk1d-2" vertex="1">
          <mxGeometry x="60" y="40" width="120" height="40" as="geometry" />
        </mxCell>
        <mxCell id="mhZYFdH8LyNg6odgdk1d-15" value="" style="edgeStyle=orthogonalEdgeStyle;rounded=0;orthogonalLoop=1;jettySize=auto;html=1;" parent="mhZYFdH8LyNg6odgdk1d-2" source="mhZYFdH8LyNg6odgdk1d-12" target="mhZYFdH8LyNg6odgdk1d-14" edge="1">
          <mxGeometry relative="1" as="geometry" />
        </mxCell>
        <mxCell id="mhZYFdH8LyNg6odgdk1d-12" value="Choose resident status" style="rounded=1;whiteSpace=wrap;html=1;arcSize=40;fontColor=#000000;fillColor=#ffffc0;strokeColor=#ff0000;" parent="mhZYFdH8LyNg6odgdk1d-2" vertex="1">
          <mxGeometry x="10" y="120" width="120" height="40" as="geometry" />
        </mxCell>
        <mxCell id="mhZYFdH8LyNg6odgdk1d-14" value="Enter additional information" style="rounded=1;whiteSpace=wrap;html=1;arcSize=40;fontColor=#000000;fillColor=#ffffc0;strokeColor=#ff0000;" parent="mhZYFdH8LyNg6odgdk1d-2" vertex="1">
          <mxGeometry x="190" y="120" width="120" height="40" as="geometry" />
        </mxCell>
        <mxCell id="mhZYFdH8LyNg6odgdk1d-24" value="Upload evidence" style="rounded=1;whiteSpace=wrap;html=1;arcSize=40;fontColor=#000000;fillColor=#ffffc0;strokeColor=#ff0000;" parent="mhZYFdH8LyNg6odgdk1d-2" vertex="1">
          <mxGeometry x="140" y="250" width="120" height="40" as="geometry" />
        </mxCell>
        <mxCell id="mhZYFdH8LyNg6odgdk1d-62" value="SubmitÂ " style="rounded=1;whiteSpace=wrap;html=1;arcSize=40;fontColor=#000000;fillColor=#ffffc0;strokeColor=#ff0000;" parent="mhZYFdH8LyNg6odgdk1d-2" vertex="1">
          <mxGeometry x="80" y="540" width="120" height="40" as="geometry" />
        </mxCell>
        <mxCell id="mhZYFdH8LyNg6odgdk1d-3" value="System" style="swimlane;startSize=20;html=1;" parent="mhZYFdH8LyNg6odgdk1d-1" vertex="1">
          <mxGeometry x="330" y="20" width="470" height="870" as="geometry" />
        </mxCell>
        <mxCell id="mhZYFdH8LyNg6odgdk1d-9" value="Display information form" style="rounded=1;whiteSpace=wrap;html=1;arcSize=40;fontColor=#000000;fillColor=#ffffc0;strokeColor=#ff0000;" parent="mhZYFdH8LyNg6odgdk1d-3" vertex="1">
          <mxGeometry x="50" y="40" width="120" height="40" as="geometry" />
        </mxCell>
        <mxCell id="mhZYFdH8LyNg6odgdk1d-19" value="" style="edgeStyle=orthogonalEdgeStyle;rounded=0;orthogonalLoop=1;jettySize=auto;html=1;" parent="mhZYFdH8LyNg6odgdk1d-3" source="mhZYFdH8LyNg6odgdk1d-16" target="mhZYFdH8LyNg6odgdk1d-18" edge="1">
          <mxGeometry relative="1" as="geometry" />
        </mxCell>
        <mxCell id="mhZYFdH8LyNg6odgdk1d-16" value="Validate Information" style="rounded=1;whiteSpace=wrap;html=1;arcSize=40;fontColor=#000000;fillColor=#ffffc0;strokeColor=#ff0000;" parent="mhZYFdH8LyNg6odgdk1d-3" vertex="1">
          <mxGeometry x="80" y="120" width="120" height="40" as="geometry" />
        </mxCell>
        <mxCell id="mhZYFdH8LyNg6odgdk1d-67" value="" style="edgeStyle=orthogonalEdgeStyle;rounded=0;orthogonalLoop=1;jettySize=auto;html=1;" parent="mhZYFdH8LyNg6odgdk1d-3" source="mhZYFdH8LyNg6odgdk1d-18" target="mhZYFdH8LyNg6odgdk1d-66" edge="1">
          <mxGeometry relative="1" as="geometry" />
        </mxCell>
        <mxCell id="mhZYFdH8LyNg6odgdk1d-18" value="" style="rhombus;whiteSpace=wrap;html=1;fillColor=#ffffc0;strokeColor=#ff0000;fontColor=#000000;rounded=1;arcSize=40;" parent="mhZYFdH8LyNg6odgdk1d-3" vertex="1">
          <mxGeometry x="125" y="180" width="30" height="30" as="geometry" />
        </mxCell>
        <mxCell id="mhZYFdH8LyNg6odgdk1d-22" value="Display evidence upload form" style="rounded=1;whiteSpace=wrap;html=1;arcSize=40;fontColor=#000000;fillColor=#ffffc0;strokeColor=#ff0000;" parent="mhZYFdH8LyNg6odgdk1d-3" vertex="1">
          <mxGeometry x="30" y="250" width="120" height="40" as="geometry" />
        </mxCell>
        <mxCell id="mhZYFdH8LyNg6odgdk1d-23" value="" style="edgeStyle=orthogonalEdgeStyle;rounded=0;orthogonalLoop=1;jettySize=auto;html=1;" parent="mhZYFdH8LyNg6odgdk1d-3" source="mhZYFdH8LyNg6odgdk1d-18" target="mhZYFdH8LyNg6odgdk1d-22" edge="1">
          <mxGeometry relative="1" as="geometry">
            <Array as="points">
              <mxPoint x="90" y="195" />
            </Array>
          </mxGeometry>
        </mxCell>
        <mxCell id="mhZYFdH8LyNg6odgdk1d-29" value="" style="edgeStyle=orthogonalEdgeStyle;rounded=0;orthogonalLoop=1;jettySize=auto;html=1;" parent="mhZYFdH8LyNg6odgdk1d-3" source="mhZYFdH8LyNg6odgdk1d-26" target="mhZYFdH8LyNg6odgdk1d-28" edge="1">
          <mxGeometry relative="1" as="geometry" />
        </mxCell>
        <mxCell id="mhZYFdH8LyNg6odgdk1d-26" value="Validate File" style="rounded=1;whiteSpace=wrap;html=1;arcSize=40;fontColor=#000000;fillColor=#ffffc0;strokeColor=#ff0000;" parent="mhZYFdH8LyNg6odgdk1d-3" vertex="1">
          <mxGeometry x="30" y="320" width="120" height="40" as="geometry" />
        </mxCell>
        <mxCell id="mhZYFdH8LyNg6odgdk1d-34" value="" style="edgeStyle=orthogonalEdgeStyle;rounded=0;orthogonalLoop=1;jettySize=auto;html=1;" parent="mhZYFdH8LyNg6odgdk1d-3" source="mhZYFdH8LyNg6odgdk1d-28" target="mhZYFdH8LyNg6odgdk1d-33" edge="1">
          <mxGeometry relative="1" as="geometry" />
        </mxCell>
        <mxCell id="mhZYFdH8LyNg6odgdk1d-28" value="" style="rhombus;whiteSpace=wrap;html=1;fillColor=#ffffc0;strokeColor=#ff0000;fontColor=#000000;rounded=1;arcSize=40;" parent="mhZYFdH8LyNg6odgdk1d-3" vertex="1">
          <mxGeometry x="75" y="390" width="30" height="30" as="geometry" />
        </mxCell>
        <mxCell id="mhZYFdH8LyNg6odgdk1d-71" style="edgeStyle=orthogonalEdgeStyle;rounded=0;orthogonalLoop=1;jettySize=auto;html=1;entryX=0;entryY=0.5;entryDx=0;entryDy=0;" parent="mhZYFdH8LyNg6odgdk1d-3" source="mhZYFdH8LyNg6odgdk1d-33" target="mhZYFdH8LyNg6odgdk1d-70" edge="1">
          <mxGeometry relative="1" as="geometry" />
        </mxCell>
        <mxCell id="mhZYFdH8LyNg6odgdk1d-33" value="Store temporary evidence" style="rounded=1;whiteSpace=wrap;html=1;arcSize=40;fontColor=#000000;fillColor=#ffffc0;strokeColor=#ff0000;" parent="mhZYFdH8LyNg6odgdk1d-3" vertex="1">
          <mxGeometry x="150" y="385" width="120" height="40" as="geometry" />
        </mxCell>
        <mxCell id="mhZYFdH8LyNg6odgdk1d-59" value="Error notification" style="rounded=1;whiteSpace=wrap;html=1;arcSize=40;fontColor=#000000;fillColor=#ffffc0;strokeColor=#ff0000;" parent="mhZYFdH8LyNg6odgdk1d-3" vertex="1">
          <mxGeometry x="35" y="450" width="120" height="40" as="geometry" />
        </mxCell>
        <mxCell id="mhZYFdH8LyNg6odgdk1d-60" value="" style="edgeStyle=orthogonalEdgeStyle;rounded=0;orthogonalLoop=1;jettySize=auto;html=1;" parent="mhZYFdH8LyNg6odgdk1d-3" source="mhZYFdH8LyNg6odgdk1d-28" target="mhZYFdH8LyNg6odgdk1d-59" edge="1">
          <mxGeometry relative="1" as="geometry">
            <Array as="points">
              <mxPoint x="50" y="405" />
              <mxPoint x="50" y="440" />
              <mxPoint x="95" y="440" />
            </Array>
          </mxGeometry>
        </mxCell>
        <mxCell id="mhZYFdH8LyNg6odgdk1d-72" style="edgeStyle=orthogonalEdgeStyle;rounded=0;orthogonalLoop=1;jettySize=auto;html=1;entryX=1;entryY=0.5;entryDx=0;entryDy=0;" parent="mhZYFdH8LyNg6odgdk1d-3" source="mhZYFdH8LyNg6odgdk1d-66" target="mhZYFdH8LyNg6odgdk1d-70" edge="1">
          <mxGeometry relative="1" as="geometry" />
        </mxCell>
        <mxCell id="mhZYFdH8LyNg6odgdk1d-66" value="Hide evidence upload form" style="rounded=1;whiteSpace=wrap;html=1;arcSize=40;fontColor=#000000;fillColor=#ffffc0;strokeColor=#ff0000;" parent="mhZYFdH8LyNg6odgdk1d-3" vertex="1">
          <mxGeometry x="220" y="175" width="120" height="40" as="geometry" />
        </mxCell>
        <mxCell id="mhZYFdH8LyNg6odgdk1d-70" value="" style="rhombus;whiteSpace=wrap;html=1;fillColor=#ffffc0;strokeColor=#ff0000;fontColor=#000000;rounded=1;arcSize=40;" parent="mhZYFdH8LyNg6odgdk1d-3" vertex="1">
          <mxGeometry x="280" y="470" width="30" height="30" as="geometry" />
        </mxCell>
        <mxCell id="mhZYFdH8LyNg6odgdk1d-77" value="" style="edgeStyle=orthogonalEdgeStyle;rounded=0;orthogonalLoop=1;jettySize=auto;html=1;" parent="mhZYFdH8LyNg6odgdk1d-3" source="mhZYFdH8LyNg6odgdk1d-74" target="mhZYFdH8LyNg6odgdk1d-76" edge="1">
          <mxGeometry relative="1" as="geometry" />
        </mxCell>
        <mxCell id="mhZYFdH8LyNg6odgdk1d-74" value="Save application" style="rounded=1;whiteSpace=wrap;html=1;arcSize=40;fontColor=#000000;fillColor=#ffffc0;strokeColor=#ff0000;" parent="mhZYFdH8LyNg6odgdk1d-3" vertex="1">
          <mxGeometry x="30" y="540" width="120" height="40" as="geometry" />
        </mxCell>
        <mxCell id="mhZYFdH8LyNg6odgdk1d-76" value="Notify manager" style="rounded=1;whiteSpace=wrap;html=1;arcSize=40;fontColor=#000000;fillColor=#ffffc0;strokeColor=#ff0000;" parent="mhZYFdH8LyNg6odgdk1d-3" vertex="1">
          <mxGeometry x="230" y="540" width="120" height="40" as="geometry" />
        </mxCell>
        <mxCell id="mhZYFdH8LyNg6odgdk1d-96" value="" style="edgeStyle=orthogonalEdgeStyle;rounded=0;orthogonalLoop=1;jettySize=auto;html=1;" parent="mhZYFdH8LyNg6odgdk1d-3" source="mhZYFdH8LyNg6odgdk1d-92" target="mhZYFdH8LyNg6odgdk1d-94" edge="1">
          <mxGeometry relative="1" as="geometry">
            <Array as="points">
              <mxPoint x="205" y="690" />
            </Array>
          </mxGeometry>
        </mxCell>
        <mxCell id="mhZYFdH8LyNg6odgdk1d-92" value="Update room information" style="rounded=1;whiteSpace=wrap;html=1;arcSize=40;fontColor=#000000;fillColor=#ffffc0;strokeColor=#ff0000;" parent="mhZYFdH8LyNg6odgdk1d-3" vertex="1">
          <mxGeometry x="180" y="670" width="120" height="40" as="geometry" />
        </mxCell>
        <mxCell id="mhZYFdH8LyNg6odgdk1d-98" value="" style="edgeStyle=orthogonalEdgeStyle;rounded=0;orthogonalLoop=1;jettySize=auto;html=1;" parent="mhZYFdH8LyNg6odgdk1d-3" source="mhZYFdH8LyNg6odgdk1d-94" target="mhZYFdH8LyNg6odgdk1d-97" edge="1">
          <mxGeometry relative="1" as="geometry" />
        </mxCell>
        <mxCell id="mhZYFdH8LyNg6odgdk1d-94" value="" style="rhombus;whiteSpace=wrap;html=1;fillColor=#ffffc0;strokeColor=#ff0000;fontColor=#000000;rounded=1;arcSize=40;" parent="mhZYFdH8LyNg6odgdk1d-3" vertex="1">
          <mxGeometry x="95" y="675" width="30" height="30" as="geometry" />
        </mxCell>
        <mxCell id="mhZYFdH8LyNg6odgdk1d-101" value="" style="edgeStyle=orthogonalEdgeStyle;rounded=0;orthogonalLoop=1;jettySize=auto;html=1;" parent="mhZYFdH8LyNg6odgdk1d-3" source="mhZYFdH8LyNg6odgdk1d-97" target="mhZYFdH8LyNg6odgdk1d-99" edge="1">
          <mxGeometry relative="1" as="geometry" />
        </mxCell>
        <mxCell id="mhZYFdH8LyNg6odgdk1d-97" value="Send result notification" style="rounded=1;whiteSpace=wrap;html=1;arcSize=40;fontColor=#000000;fillColor=#ffffc0;strokeColor=#ff0000;" parent="mhZYFdH8LyNg6odgdk1d-3" vertex="1">
          <mxGeometry x="50" y="740" width="120" height="40" as="geometry" />
        </mxCell>
        <mxCell id="mhZYFdH8LyNg6odgdk1d-99" value="" style="ellipse;html=1;shape=endState;fillColor=#000000;strokeColor=#ff0000;" parent="mhZYFdH8LyNg6odgdk1d-3" vertex="1">
          <mxGeometry x="95" y="810" width="30" height="30" as="geometry" />
        </mxCell>
        <mxCell id="c_RkZnYAfPRZ5MoswimR-3" value="" style="edgeStyle=orthogonalEdgeStyle;rounded=0;orthogonalLoop=1;jettySize=auto;html=1;" edge="1" parent="mhZYFdH8LyNg6odgdk1d-3" source="c_RkZnYAfPRZ5MoswimR-1" target="mhZYFdH8LyNg6odgdk1d-92">
          <mxGeometry relative="1" as="geometry" />
        </mxCell>
        <mxCell id="c_RkZnYAfPRZ5MoswimR-1" value="Update user information" style="rounded=1;whiteSpace=wrap;html=1;arcSize=40;fontColor=#000000;fillColor=#ffffc0;strokeColor=#ff0000;" vertex="1" parent="mhZYFdH8LyNg6odgdk1d-3">
          <mxGeometry x="330" y="670" width="120" height="40" as="geometry" />
        </mxCell>
        <mxCell id="mhZYFdH8LyNg6odgdk1d-4" value="Manager" style="swimlane;startSize=20;html=1;" parent="mhZYFdH8LyNg6odgdk1d-1" vertex="1">
          <mxGeometry x="800" y="20" width="360" height="870" as="geometry" />
        </mxCell>
        <mxCell id="mhZYFdH8LyNg6odgdk1d-81" value="" style="edgeStyle=orthogonalEdgeStyle;rounded=0;orthogonalLoop=1;jettySize=auto;html=1;" parent="mhZYFdH8LyNg6odgdk1d-4" source="mhZYFdH8LyNg6odgdk1d-78" target="mhZYFdH8LyNg6odgdk1d-80" edge="1">
          <mxGeometry relative="1" as="geometry" />
        </mxCell>
        <mxCell id="mhZYFdH8LyNg6odgdk1d-78" value="Receive request" style="rounded=1;whiteSpace=wrap;html=1;arcSize=40;fontColor=#000000;fillColor=#ffffc0;strokeColor=#ff0000;" parent="mhZYFdH8LyNg6odgdk1d-4" vertex="1">
          <mxGeometry x="20" y="35" width="120" height="40" as="geometry" />
        </mxCell>
        <mxCell id="mhZYFdH8LyNg6odgdk1d-83" style="edgeStyle=orthogonalEdgeStyle;rounded=0;orthogonalLoop=1;jettySize=auto;html=1;entryX=0.5;entryY=0;entryDx=0;entryDy=0;" parent="mhZYFdH8LyNg6odgdk1d-4" source="mhZYFdH8LyNg6odgdk1d-80" target="mhZYFdH8LyNg6odgdk1d-82" edge="1">
          <mxGeometry relative="1" as="geometry">
            <Array as="points">
              <mxPoint x="280" y="80" />
              <mxPoint x="185" y="80" />
            </Array>
          </mxGeometry>
        </mxCell>
        <mxCell id="mhZYFdH8LyNg6odgdk1d-80" value="Verify information" style="rounded=1;whiteSpace=wrap;html=1;arcSize=40;fontColor=#000000;fillColor=#ffffc0;strokeColor=#ff0000;" parent="mhZYFdH8LyNg6odgdk1d-4" vertex="1">
          <mxGeometry x="220" y="35" width="120" height="40" as="geometry" />
        </mxCell>
        <mxCell id="mhZYFdH8LyNg6odgdk1d-85" style="edgeStyle=orthogonalEdgeStyle;rounded=0;orthogonalLoop=1;jettySize=auto;html=1;entryX=0.5;entryY=0;entryDx=0;entryDy=0;" parent="mhZYFdH8LyNg6odgdk1d-4" source="mhZYFdH8LyNg6odgdk1d-82" target="mhZYFdH8LyNg6odgdk1d-84" edge="1">
          <mxGeometry relative="1" as="geometry" />
        </mxCell>
        <mxCell id="mhZYFdH8LyNg6odgdk1d-89" style="edgeStyle=orthogonalEdgeStyle;rounded=0;orthogonalLoop=1;jettySize=auto;html=1;entryX=0.5;entryY=0;entryDx=0;entryDy=0;" parent="mhZYFdH8LyNg6odgdk1d-4" source="mhZYFdH8LyNg6odgdk1d-82" target="mhZYFdH8LyNg6odgdk1d-88" edge="1">
          <mxGeometry relative="1" as="geometry">
            <Array as="points">
              <mxPoint x="280" y="115" />
            </Array>
          </mxGeometry>
        </mxCell>
        <mxCell id="mhZYFdH8LyNg6odgdk1d-82" value="" style="rhombus;whiteSpace=wrap;html=1;fillColor=#ffffc0;strokeColor=#ff0000;fontColor=#000000;rounded=1;arcSize=40;" parent="mhZYFdH8LyNg6odgdk1d-4" vertex="1">
          <mxGeometry x="170" y="100" width="30" height="30" as="geometry" />
        </mxCell>
        <mxCell id="mhZYFdH8LyNg6odgdk1d-87" value="" style="edgeStyle=orthogonalEdgeStyle;rounded=0;orthogonalLoop=1;jettySize=auto;html=1;" parent="mhZYFdH8LyNg6odgdk1d-4" source="mhZYFdH8LyNg6odgdk1d-84" target="mhZYFdH8LyNg6odgdk1d-86" edge="1">
          <mxGeometry relative="1" as="geometry" />
        </mxCell>
        <mxCell id="mhZYFdH8LyNg6odgdk1d-84" value="Reject request" style="rounded=1;whiteSpace=wrap;html=1;arcSize=40;fontColor=#000000;fillColor=#ffffc0;strokeColor=#ff0000;" parent="mhZYFdH8LyNg6odgdk1d-4" vertex="1">
          <mxGeometry x="20" y="160" width="120" height="40" as="geometry" />
        </mxCell>
        <mxCell id="mhZYFdH8LyNg6odgdk1d-86" value="Create reason" style="rounded=1;whiteSpace=wrap;html=1;arcSize=40;fontColor=#000000;fillColor=#ffffc0;strokeColor=#ff0000;" parent="mhZYFdH8LyNg6odgdk1d-4" vertex="1">
          <mxGeometry x="20" y="230" width="120" height="40" as="geometry" />
        </mxCell>
        <mxCell id="mhZYFdH8LyNg6odgdk1d-88" value="Approve request" style="rounded=1;whiteSpace=wrap;html=1;arcSize=40;fontColor=#000000;fillColor=#ffffc0;strokeColor=#ff0000;" parent="mhZYFdH8LyNg6odgdk1d-4" vertex="1">
          <mxGeometry x="220" y="160" width="120" height="40" as="geometry" />
        </mxCell>
        <mxCell id="mhZYFdH8LyNg6odgdk1d-8" value="" style="edgeStyle=orthogonalEdgeStyle;html=1;verticalAlign=bottom;endArrow=open;endSize=8;strokeColor=#000000;rounded=0;entryX=0;entryY=0.5;entryDx=0;entryDy=0;" parent="mhZYFdH8LyNg6odgdk1d-1" source="mhZYFdH8LyNg6odgdk1d-7" target="mhZYFdH8LyNg6odgdk1d-9" edge="1">
          <mxGeometry relative="1" as="geometry">
            <mxPoint x="110" y="210" as="targetPoint" />
          </mxGeometry>
        </mxCell>
        <mxCell id="mhZYFdH8LyNg6odgdk1d-13" value="" style="edgeStyle=orthogonalEdgeStyle;rounded=0;orthogonalLoop=1;jettySize=auto;html=1;" parent="mhZYFdH8LyNg6odgdk1d-1" source="mhZYFdH8LyNg6odgdk1d-9" target="mhZYFdH8LyNg6odgdk1d-12" edge="1">
          <mxGeometry relative="1" as="geometry">
            <Array as="points">
              <mxPoint x="400" y="110" />
              <mxPoint x="70" y="110" />
            </Array>
          </mxGeometry>
        </mxCell>
        <mxCell id="mhZYFdH8LyNg6odgdk1d-17" value="" style="edgeStyle=orthogonalEdgeStyle;rounded=0;orthogonalLoop=1;jettySize=auto;html=1;" parent="mhZYFdH8LyNg6odgdk1d-1" source="mhZYFdH8LyNg6odgdk1d-14" target="mhZYFdH8LyNg6odgdk1d-16" edge="1">
          <mxGeometry relative="1" as="geometry" />
        </mxCell>
        <mxCell id="mhZYFdH8LyNg6odgdk1d-25" value="" style="edgeStyle=orthogonalEdgeStyle;rounded=0;orthogonalLoop=1;jettySize=auto;html=1;" parent="mhZYFdH8LyNg6odgdk1d-1" source="mhZYFdH8LyNg6odgdk1d-22" target="mhZYFdH8LyNg6odgdk1d-24" edge="1">
          <mxGeometry relative="1" as="geometry" />
        </mxCell>
        <mxCell id="mhZYFdH8LyNg6odgdk1d-27" value="" style="edgeStyle=orthogonalEdgeStyle;rounded=0;orthogonalLoop=1;jettySize=auto;html=1;" parent="mhZYFdH8LyNg6odgdk1d-1" source="mhZYFdH8LyNg6odgdk1d-24" target="mhZYFdH8LyNg6odgdk1d-26" edge="1">
          <mxGeometry relative="1" as="geometry">
            <Array as="points">
              <mxPoint x="200" y="360" />
            </Array>
          </mxGeometry>
        </mxCell>
        <mxCell id="mhZYFdH8LyNg6odgdk1d-61" style="edgeStyle=orthogonalEdgeStyle;rounded=0;orthogonalLoop=1;jettySize=auto;html=1;entryX=0;entryY=0.5;entryDx=0;entryDy=0;" parent="mhZYFdH8LyNg6odgdk1d-1" source="mhZYFdH8LyNg6odgdk1d-59" target="mhZYFdH8LyNg6odgdk1d-24" edge="1">
          <mxGeometry relative="1" as="geometry" />
        </mxCell>
        <mxCell id="mhZYFdH8LyNg6odgdk1d-73" style="edgeStyle=orthogonalEdgeStyle;rounded=0;orthogonalLoop=1;jettySize=auto;html=1;entryX=0.5;entryY=0;entryDx=0;entryDy=0;" parent="mhZYFdH8LyNg6odgdk1d-1" source="mhZYFdH8LyNg6odgdk1d-70" target="mhZYFdH8LyNg6odgdk1d-62" edge="1">
          <mxGeometry relative="1" as="geometry">
            <Array as="points">
              <mxPoint x="625" y="530" />
              <mxPoint x="140" y="530" />
            </Array>
          </mxGeometry>
        </mxCell>
        <mxCell id="mhZYFdH8LyNg6odgdk1d-75" value="" style="edgeStyle=orthogonalEdgeStyle;rounded=0;orthogonalLoop=1;jettySize=auto;html=1;" parent="mhZYFdH8LyNg6odgdk1d-1" source="mhZYFdH8LyNg6odgdk1d-62" target="mhZYFdH8LyNg6odgdk1d-74" edge="1">
          <mxGeometry relative="1" as="geometry" />
        </mxCell>
        <mxCell id="mhZYFdH8LyNg6odgdk1d-79" value="" style="edgeStyle=orthogonalEdgeStyle;rounded=0;orthogonalLoop=1;jettySize=auto;html=1;" parent="mhZYFdH8LyNg6odgdk1d-1" source="mhZYFdH8LyNg6odgdk1d-76" target="mhZYFdH8LyNg6odgdk1d-78" edge="1">
          <mxGeometry relative="1" as="geometry">
            <Array as="points">
              <mxPoint x="720" y="580" />
              <mxPoint x="720" y="75" />
            </Array>
          </mxGeometry>
        </mxCell>
        <mxCell id="mhZYFdH8LyNg6odgdk1d-91" value="" style="edgeStyle=orthogonalEdgeStyle;rounded=0;orthogonalLoop=1;jettySize=auto;html=1;entryX=0;entryY=0.5;entryDx=0;entryDy=0;" parent="mhZYFdH8LyNg6odgdk1d-1" source="mhZYFdH8LyNg6odgdk1d-86" target="mhZYFdH8LyNg6odgdk1d-94" edge="1">
          <mxGeometry relative="1" as="geometry">
            <Array as="points">
              <mxPoint x="830" y="650" />
              <mxPoint x="360" y="650" />
              <mxPoint x="360" y="710" />
            </Array>
            <mxPoint x="700" y="650" as="targetPoint" />
          </mxGeometry>
        </mxCell>
        <mxCell id="mhZYFdH8LyNg6odgdk1d-93" value="" style="edgeStyle=orthogonalEdgeStyle;rounded=0;orthogonalLoop=1;jettySize=auto;html=1;entryX=1;entryY=0.5;entryDx=0;entryDy=0;" parent="mhZYFdH8LyNg6odgdk1d-1" source="mhZYFdH8LyNg6odgdk1d-88" target="c_RkZnYAfPRZ5MoswimR-1" edge="1">
          <mxGeometry relative="1" as="geometry">
            <Array as="points">
              <mxPoint x="1030" y="710" />
            </Array>
          </mxGeometry>
        </mxCell>
      </root>
    </mxGraphModel>
  </diagram>
</mxfile>
